<svg width="1078" height="313" viewBox="0 0 1078 313" fill="none" xmlns="http://www.w3.org/2000/svg">
<path d="M356.97 83.8398H385.002V111.872H356.97V83.8398ZM356.97 111.872H385.002V139.904H356.97V111.872ZM356.97 139.904H385.002V167.936H356.97V139.904ZM356.97 167.936H385.002V195.968H356.97V167.936ZM385.002 195.968H413.034V224H385.002V195.968ZM413.034 167.936H441.066V195.968H413.034V167.936ZM413.034 139.904H441.066V167.936H413.034V139.904ZM413.034 111.872H441.066V139.904H413.034V111.872ZM413.034 83.8398H441.066V111.872H413.034V83.8398ZM468.988 83.8398H497.02V111.872H468.988V83.8398ZM468.988 111.872H497.02V139.904H468.988V111.872ZM468.988 139.904H497.02V167.936H468.988V139.904ZM468.988 167.936H497.02V195.968H468.988V167.936ZM468.988 195.968H497.02V224H468.988V195.968ZM497.02 83.8398H525.052V111.872H497.02V83.8398ZM497.02 195.968H525.052V224H497.02V195.968ZM497.02 139.904H525.052V167.936H497.02V139.904ZM525.052 83.8398H553.084V111.872H525.052V83.8398ZM525.052 195.968H553.084V224H525.052V195.968ZM581.007 83.8398H609.039V111.872H581.007V83.8398ZM581.007 111.872H609.039V139.904H581.007V111.872ZM581.007 139.904H609.039V167.936H581.007V139.904ZM581.007 167.936H609.039V195.968H581.007V167.936ZM581.007 195.968H609.039V224H581.007V195.968ZM637.016 83.8398H665.048V111.872H637.016V83.8398ZM637.016 111.872H665.048V139.904H637.016V111.872ZM637.016 139.904H665.048V167.936H637.016V139.904ZM637.016 167.936H665.048V195.968H637.016V167.936ZM637.016 195.968H665.048V224H637.016V195.968ZM665.048 195.968H693.08V224H665.048V195.968Z" fill="white"/>
<path d="M672.42 47.1252C681.065 49.3567 702.704 47.1252 709.085 47.1252C715.467 47.1252 727.273 50.313 709.085 81.5559C690.898 112.799 726.635 105.148 733.016 105.466C739.397 105.785 773.219 102.278 769.39 81.5559C765.562 60.8342 777.048 11.1006 777.048 11.1006C777.048 11.1006 749.608 11.1009 690.898 15.1484C632.188 19.196 663.776 44.8937 672.42 47.1252Z" fill="#E67F1F" stroke="black" stroke-width="1.23341"/>
</svg>
